<?xml version="1.0" encoding="UTF-8"?>
<svg version="1.1" xmlns="http://www.w3.org/2000/svg" width="90" height="90">
<path d="M0 0 C1.53748118 0.05105811 3.07492612 0.10321795 4.61233521 0.15640259 C6.1955518 0.17506942 7.77882642 0.18929671 9.36212158 0.19927979 C13.51640163 0.23734511 17.66714807 0.33545333 21.82003784 0.44631958 C26.06281728 0.54888312 30.30617171 0.59434411 34.54983521 0.64468384 C42.86655569 0.75172241 51.18041141 0.92223195 59.49514771 1.13296509 C58.18555704 4.50833657 56.83079546 7.33972755 54.72952271 10.29312134 C54.17651489 11.07622681 53.62350708 11.85933228 53.05374146 12.66616821 C52.15848755 13.91817017 52.15848755 13.91817017 51.24514771 15.19546509 C49.96897256 16.99875605 48.69293467 18.80214416 47.41702271 20.60562134 C46.43765747 21.98451538 46.43765747 21.98451538 45.43850708 23.39126587 C42.43773147 27.62477216 39.467123 31.87921745 36.49514771 36.13296509 C35.3403529 37.78281185 34.18540411 39.43255085 33.03030396 41.08218384 C30.57886265 44.58414488 28.12850695 48.08686281 25.67874146 51.58999634 C25.05161255 52.48653931 24.42448364 53.38308228 23.77835083 54.30679321 C22.58536162 56.01232594 21.39263503 57.71804242 20.20022583 59.42398071 C16.9904473 64.0120983 13.75779115 68.58227619 10.49514771 73.13296509 C-0.7290816 70.31575888 -8.3835342 63.53642365 -14.80953979 54.02749634 C-21.32940837 42.895647 -21.99459035 30.66236386 -20.03219604 18.10952759 C-19.38330807 15.64608461 -18.50018307 13.47613409 -17.50485229 11.13296509 C-17.19828705 10.27740021 -16.8917218 9.42183533 -16.5758667 8.54034424 C-12.95157858 0.47586998 -8.33088946 -0.10279441 0 0 Z " fill="#EE340E" transform="translate(20.504852294921875,14.867034912109375)"/>
<path d="M0 0 C5.4344813 4.87390444 6.93144024 11.64226614 7.4296875 18.71484375 C7.9635426 32.23744519 5.81081419 43.48450997 -3.19140625 54.07421875 C-10.53663509 61.89538034 -20.21460373 68.38870911 -31.24560547 69.15625 C-33.64623799 69.19572597 -36.0371252 69.17528988 -38.4375 69.125 C-39.67790039 69.11146484 -39.67790039 69.11146484 -40.94335938 69.09765625 C-42.96236708 69.07431512 -44.98122356 69.03845288 -47 69 C-45.45663264 64.48136334 -42.97741813 60.80759642 -40.25 56.9375 C-39.76974365 56.247771 -39.2894873 55.55804199 -38.79467773 54.84741211 C-37.20118157 52.56159909 -35.60056665 50.2808664 -34 48 C-32.86025962 46.36747887 -31.72094472 44.73466062 -30.58203125 43.1015625 C-27.06383654 38.06127016 -23.53401294 33.02921063 -20 28 C-19.45102051 27.21850586 -18.90204102 26.43701172 -18.33642578 25.63183594 C-12.29436322 17.03583649 -6.21923981 8.46914127 0 0 Z " fill="#ED340E" transform="translate(83,21)"/>
<path d="M0 0 C0.44988281 0.37898437 0.89976563 0.75796875 1.36328125 1.1484375 C1.36328125 1.8084375 1.36328125 2.4684375 1.36328125 3.1484375 C-17.77671875 3.1484375 -36.91671875 3.1484375 -56.63671875 3.1484375 C-56.63671875 2.4884375 -56.63671875 1.8284375 -56.63671875 1.1484375 C-54.2578125 -0.5078125 -54.2578125 -0.5078125 -51.07421875 -2.3515625 C-50.04167969 -2.96 -49.00914063 -3.5684375 -47.9453125 -4.1953125 C-32.47565165 -11.93927495 -14.1463401 -8.90170499 0 0 Z " fill="#ED340E" transform="translate(72.63671875,7.8515625)"/>
</svg>
